<svg width="24" height="24" viewBox="0 0 24 24" fill="none" xmlns="http://www.w3.org/2000/svg">
<path d="M21.4931 8.47499C22.2996 10.6412 22.3406 13.0182 21.6093 15.211C20.878 17.4038 19.4184 19.2803 17.4731 20.5288C15.5277 21.7773 13.2138 22.3225 10.9157 22.074C8.61758 21.8254 6.4737 20.798 4.84028 19.1625C3.00545 17.3337 1.9414 14.8712 1.86709 12.2817C1.79277 9.69217 2.71386 7.17268 4.44079 5.24168C6.16773 3.31068 8.56913 2.11507 11.1508 1.90089C13.7325 1.68672 16.2981 2.47027 18.3197 4.0903L20.204 2.20499C20.3087 2.10034 20.4329 2.01733 20.5696 1.9607C20.7064 1.90406 20.8529 1.87491 21.0009 1.87491C21.1489 1.87491 21.2954 1.90406 21.4322 1.9607C21.5689 2.01733 21.6931 2.10034 21.7978 2.20499C21.9024 2.30964 21.9854 2.43387 22.0421 2.5706C22.0987 2.70733 22.1279 2.85387 22.1279 3.00186C22.1279 3.14986 22.0987 3.2964 22.0421 3.43313C21.9854 3.56986 21.9024 3.69409 21.7978 3.79874L12.7978 12.7987C12.6931 12.9034 12.5689 12.9864 12.4322 13.043C12.2954 13.0997 12.1489 13.1288 12.0009 13.1288C11.8529 13.1288 11.7064 13.0997 11.5696 13.043C11.4329 12.9864 11.3087 12.9034 11.204 12.7987C11.0994 12.6941 11.0164 12.5699 10.9597 12.4331C10.9031 12.2964 10.874 12.1499 10.874 12.0019C10.874 11.8539 10.9031 11.7073 10.9597 11.5706C11.0164 11.4339 11.0994 11.3096 11.204 11.205L13.454 8.95499C12.8199 8.65201 12.107 8.55457 11.4148 8.67624C10.7226 8.79791 10.0857 9.13264 9.59284 9.63372C9.10004 10.1348 8.77595 10.7772 8.6658 11.4713C8.55565 12.1654 8.66494 12.8766 8.97842 13.5057C9.2919 14.1347 9.79393 14.6501 10.4144 14.9801C11.035 15.3101 11.743 15.4382 12.4398 15.3464C13.1366 15.2546 13.7873 14.9476 14.3013 14.4682C14.8152 13.9888 15.1666 13.3609 15.3065 12.6722C15.3655 12.3797 15.5382 12.1225 15.7867 11.9573C16.0352 11.7922 16.3392 11.7325 16.6317 11.7914C16.9242 11.8503 17.1813 12.023 17.3465 12.2716C17.5117 12.5201 17.5714 12.824 17.5125 13.1166C17.2728 14.297 16.6606 15.3694 15.7658 16.1758C14.8711 16.9823 13.7411 17.4802 12.5421 17.5963C11.3432 17.7124 10.1386 17.4406 9.10577 16.8208C8.07289 16.2011 7.26624 15.2661 6.80453 14.1536C6.34283 13.041 6.25045 11.8096 6.541 10.6407C6.83156 9.47168 7.48969 8.42685 8.41854 7.65993C9.34739 6.89301 10.4979 6.44451 11.7007 6.38045C12.9036 6.31638 14.0952 6.64013 15.1003 7.30405L16.7156 5.69436C15.1983 4.56116 13.3234 4.01271 11.4345 4.14952C9.54566 4.28633 7.76937 5.09923 6.43116 6.43926C5.09295 7.77928 4.28245 9.55668 4.14821 11.4457C4.01396 13.3347 4.56496 15.2089 5.70021 16.7247C6.83547 18.2405 8.47895 19.2964 10.3295 19.699C12.18 20.1015 14.1136 19.8237 15.776 18.9165C17.4383 18.0093 18.718 16.5334 19.3806 14.7593C20.0433 12.9852 20.0443 11.0317 19.3837 9.25686C19.3311 9.1181 19.3065 8.97031 19.3113 8.822C19.3161 8.67368 19.3501 8.52778 19.4115 8.39268C19.4729 8.25759 19.5604 8.13598 19.669 8.03485C19.7776 7.93373 19.9052 7.85509 20.0443 7.80346C20.1834 7.75183 20.3314 7.72823 20.4796 7.73403C20.6279 7.73982 20.7736 7.7749 20.9083 7.83723C21.0429 7.89956 21.1639 7.98792 21.2643 8.09721C21.3647 8.20651 21.4424 8.33458 21.4931 8.47405V8.47499Z" fill="black"/>
</svg>
